<svg width="13" height="14" viewBox="0 0 13 14" fill="none" xmlns="http://www.w3.org/2000/svg">
<path fill-rule="evenodd" clip-rule="evenodd" d="M12.1459 6.14708C12.2713 6.01694 12.4571 5.96455 12.632 6.01007C12.8069 6.05558 12.9436 6.1919 12.9896 6.36664C13.0356 6.54139 12.9837 6.72736 12.8539 6.85308L6.90994 12.8161C5.88923 13.8393 4.40019 14.2402 3.00371 13.8679C1.60723 13.4955 0.515477 12.4064 0.139706 11.0109C-0.236064 9.61531 0.161233 8.12529 1.18194 7.10208L7.43994 0.877079C8.60531 -0.281025 10.4879 -0.278342 11.6499 0.883079C12.8113 2.04481 12.8117 3.9278 11.6509 5.09008L5.29494 11.4501C4.93391 11.8113 4.44414 12.0142 3.93344 12.0142C3.42274 12.0142 2.93297 11.8113 2.57194 11.4501C1.8198 10.6983 1.81756 9.47966 2.56694 8.72508L7.12894 4.13208C7.25395 4.00168 7.43958 3.94885 7.61451 3.99388C7.78945 4.03891 7.9265 4.1748 7.97301 4.34935C8.01953 4.5239 7.96827 4.70997 7.83894 4.83608L3.27694 9.43008C2.91512 9.79368 2.91601 10.3816 3.27894 10.7441C3.45245 10.9178 3.68791 11.0154 3.93344 11.0154C4.17898 11.0154 4.41444 10.9178 4.58794 10.7441L10.9439 4.38408C11.7146 3.61257 11.7146 2.36259 10.9439 1.59108C10.1714 0.817933 8.91872 0.816143 8.14394 1.58708L1.89394 7.80308C1.12439 8.57245 0.823752 9.69393 1.10527 10.7451C1.38679 11.7962 2.2077 12.6173 3.25877 12.8991C4.30984 13.1808 5.43139 12.8805 6.20094 12.1111L12.1459 6.14808V6.14708Z" fill="#882736"/>
</svg>
