<svg width="136" height="33" viewBox="0 0 136 33" fill="none" xmlns="http://www.w3.org/2000/svg">
<path d="M4.8862 31.3599C4.43378 31.9022 3.7099 32.1733 2.89554 32.1733H0.0905151V23.8589H2.89554C3.7099 23.8589 4.43378 24.13 4.8862 24.6722C5.70057 25.576 5.70058 26.8412 5.70058 28.0161C5.70058 29.191 5.70057 30.5466 4.8862 31.4503V31.3599ZM3.98136 25.4856C3.61942 25.1241 3.16699 24.9434 2.62408 24.9434H1.17633V30.9984H2.62408C3.16699 30.9984 3.61942 30.8177 3.98136 30.4562C4.43378 30.0043 4.43378 29.1006 4.43378 27.9257C4.43378 26.7509 4.43378 26.0279 3.98136 25.4856Z" fill="#222222"/>
<path d="M7.87219 32.083V23.7686H9.0485V32.083H7.87219Z" fill="#222222"/>
<path d="M16.2873 31.2696C15.6539 31.9022 14.93 32.2637 14.1156 32.2637C13.3013 32.2637 12.5774 31.9022 12.0345 31.36C11.2201 30.5466 11.3106 29.6429 11.3106 28.0161C11.3106 26.3894 11.3106 25.4857 12.0345 24.6723C12.5774 24.1301 13.3013 23.7686 14.1156 23.7686C15.7444 23.7686 16.7397 24.9434 17.0112 26.3894H15.8349C15.6539 25.4857 15.0205 24.9434 14.2061 24.9434C13.3918 24.9434 13.3013 25.1242 13.0298 25.4857C12.6679 25.9375 12.5774 26.3894 12.5774 28.1065C12.5774 29.8236 12.5774 30.2755 13.0298 30.7274C13.3013 31.0889 13.7537 31.2696 14.2061 31.2696C14.6585 31.2696 15.2015 31.0889 15.4729 30.7274C15.7444 30.3659 15.8349 29.914 15.8349 29.3717V28.9199H14.1156V27.8354H17.0112V29.1006C17.0112 30.1851 16.8302 30.9081 16.2873 31.4503V31.2696Z" fill="#222222"/>
<path d="M19.1828 32.083V23.7686H20.3591V32.083H19.1828Z" fill="#222222"/>
<path d="M25.5167 24.8536V32.0835H24.3404V24.8536H22.1688V23.6787H27.6883V24.8536H25.5167Z" fill="#222222"/>
<path d="M33.3889 32.083L32.846 30.3659H29.7695L29.2266 32.083H27.9598L30.8554 23.7686H31.8507L34.7462 32.083H33.4794H33.3889ZM31.3078 25.6664L30.041 29.3717H32.4841L31.3078 25.6664Z" fill="#222222"/>
<path d="M36.194 32.083V23.7686H37.3703V30.9985H41.1706V32.1733H36.194V32.083Z" fill="#222222"/>
<path d="M48.7714 32.1733C47.1427 32.1733 45.9664 30.9985 45.9664 29.2814V23.7686H47.1427V29.2814C47.1427 30.3659 47.7761 31.0889 48.7714 31.0889C49.7667 31.0889 50.4001 30.3659 50.4001 29.2814V23.7686H51.5764V29.2814C51.5764 30.9985 50.3096 32.1733 48.7714 32.1733Z" fill="#222222"/>
<path d="M59.72 32.083V26.4798L57.9103 30.5466H57.0055L55.1053 26.4798V32.083H53.929V23.7686H55.1053L57.3674 29.0102L59.6296 23.7686H60.8059V32.083H59.6296H59.72Z" fill="#222222"/>
<path d="M69.221 32.083V26.4798L67.4113 30.5466H66.5064L64.6062 26.4798V32.083H63.4299V23.7686H64.6062L66.8683 29.0102L69.1305 23.7686H70.3068V32.083H69.1305H69.221Z" fill="#222222"/>
<path d="M80.5316 32.083L79.9887 30.3659H76.9122L76.3693 32.083H75.1025L77.998 23.7686H78.9933L81.8888 32.083H80.6221H80.5316ZM78.4504 25.6664L77.1836 29.3717H79.6267L78.4504 25.6664Z" fill="#222222"/>
<path d="M83.3365 32.083V23.7686H84.5128V30.9985H88.3132V32.1733H83.3365V32.083Z" fill="#222222"/>
<path d="M98.1762 32.445L97.3618 31.6316C96.9094 31.9931 96.3664 32.1739 95.7331 32.1739C95.0997 32.1739 94.1948 31.8124 93.6519 31.2701C92.8375 30.4568 92.928 29.553 92.928 27.9263C92.928 26.2996 92.928 25.3958 93.6519 24.5825C94.1948 24.0402 94.9187 23.6787 95.7331 23.6787C96.5474 23.6787 97.2713 24.0402 97.8142 24.5825C98.6286 25.3958 98.5381 26.2996 98.5381 27.9263C98.5381 29.553 98.5381 30.1856 97.9952 30.999L98.8096 31.8124L98.1762 32.5354V32.445ZM96.9094 25.3054C96.6379 24.9439 96.1855 24.7632 95.7331 24.7632C95.2806 24.7632 94.8282 24.9439 94.5568 25.3054C94.1948 25.7573 94.1043 26.2092 94.1043 27.9263C94.1043 29.6434 94.1043 30.0953 94.5568 30.5471C94.8282 30.9086 95.2806 31.0894 95.7331 31.0894C96.1855 31.0894 96.276 30.999 96.5474 30.8183L95.7331 29.9145L96.3665 29.1915L97.0903 30.0049C97.2713 29.553 97.3618 29.0108 97.3618 27.9263C97.3618 26.2092 97.3618 25.7573 96.9094 25.3054Z" fill="#222222"/>
<path d="M103.515 32.1733C101.886 32.1733 100.71 30.9985 100.71 29.2814V23.7686H101.886V29.2814C101.886 30.3659 102.519 31.0889 103.515 31.0889C104.51 31.0889 105.143 30.3659 105.143 29.2814V23.7686H106.32V29.2814C106.32 30.9985 105.053 32.1733 103.515 32.1733Z" fill="#222222"/>
<path d="M115.187 32.083H114.102L112.473 26.2087L110.844 32.083H109.849L107.768 23.7686H109.034L110.392 29.7332L111.93 23.7686H112.925L114.463 29.7332L115.821 23.7686H117.088L115.006 32.083H115.187Z" fill="#222222"/>
<path d="M123.15 32.083L122.607 30.3659H119.531L118.988 32.083H117.721L120.616 23.7686H121.612L124.507 32.083H123.24H123.15ZM121.069 25.6664L119.802 29.3717H122.245L121.069 25.6664Z" fill="#222222"/>
<path d="M126.045 32.083V23.7686H127.222V32.083H126.045Z" fill="#222222"/>
<path d="M134.551 32.083L130.932 26.2087V32.083H129.755V23.7686H130.841L134.461 29.6429V23.7686H135.637V32.083H134.551Z" fill="#222222"/>
<path d="M9.68188 14.822V15.9969H3.52891C2.53357 15.9969 1.71922 15.6354 0.99534 15.0027C0.27146 14.2798 0 13.4664 0 12.5627V11.2974C0 10.3033 0.361945 9.48993 0.99534 8.85732C1.71922 8.13432 2.53357 7.8632 3.52891 7.8632C4.52424 7.8632 5.33861 8.2247 6.06249 8.85732C6.78637 9.58031 7.05783 10.3937 7.05783 11.2974V14.822H9.68188ZM5.88152 11.2974C5.88152 10.6648 5.70055 10.1225 5.24813 9.67068C4.7957 9.21881 4.25279 9.03806 3.6194 9.03806C2.986 9.03806 2.44309 9.21881 1.99067 9.67068C1.53824 10.1225 1.35727 10.6648 1.35727 11.2974V12.5627C1.35727 13.1953 1.53824 13.7375 1.99067 14.1894C2.44309 14.6412 2.986 14.822 3.6194 14.822H5.97201V11.2974H5.88152ZM1.8097 6.23647C1.62873 6.23647 1.62873 6.23647 1.62873 6.05572V5.06161C1.62873 4.88086 1.62873 4.88086 1.8097 4.88086H2.62406C2.80503 4.88086 2.89551 4.88086 2.89551 5.06161V6.05572C2.89551 6.23647 2.89551 6.23647 2.62406 6.23647H1.8097ZM4.07182 6.23647C3.89085 6.23647 3.89085 6.23647 3.89085 6.05572V5.06161C3.89085 4.88086 3.89085 4.88086 4.07182 4.88086H4.88618C5.06715 4.88086 5.15764 4.88086 5.15764 5.06161V6.05572C5.15764 6.23647 5.15763 6.23647 4.88618 6.23647H4.07182Z" fill="#222222"/>
<path d="M15.473 15.9963H14.93C14.1157 15.9963 13.4823 15.8156 13.1203 15.3637C12.7584 15.7252 12.2155 15.906 11.5821 15.906H9.04852V14.7311H11.5821C11.8536 14.7311 12.125 14.7311 12.2155 14.5503C12.3965 14.3696 12.3965 14.1888 12.3965 13.8273V8.31453C12.3965 8.13379 12.3965 8.13379 12.5774 8.13379H13.3918C13.5728 8.13379 13.6633 8.13379 13.6633 8.31453V14.0985C13.6633 14.2792 13.6633 14.46 13.8442 14.5503C14.0252 14.7311 14.3871 14.8215 14.8396 14.8215H15.6539V15.9963H15.473ZM11.4916 17.5327C11.6726 17.5327 11.7631 17.5327 11.7631 17.7134V18.7075C11.7631 18.8883 11.7631 18.8883 11.4916 18.8883H10.6773C10.4963 18.8883 10.4963 18.8883 10.4963 18.7075V17.7134C10.4963 17.5327 10.4963 17.5327 10.6773 17.5327H11.4916ZM13.6633 17.5327C13.8442 17.5327 13.9347 17.5327 13.9347 17.7134V18.7075C13.9347 18.8883 13.9347 18.8883 13.6633 18.8883H12.8489C12.6679 18.8883 12.5774 18.8883 12.5774 18.7075V17.7134C12.5774 17.5327 12.5774 17.5327 12.8489 17.5327H13.6633Z" fill="#222222"/>
<path d="M26.8741 15.9964H25.8788C25.1549 15.9964 24.612 15.8157 24.1595 15.3638C24.1595 15.3638 23.9786 15.183 23.8881 15.0927C23.1642 15.7253 22.3498 16.0868 21.445 16.0868H15.0206V14.9119H17.9161V11.3873C17.9161 10.3932 18.278 9.57986 18.9114 8.94724C19.6353 8.22425 20.4497 7.95312 21.445 7.95312C22.4403 7.95312 23.2547 8.31462 23.9786 8.94724C24.7024 9.67023 24.9739 10.4836 24.9739 11.3873V12.6526C24.9739 13.1948 24.7929 13.7371 24.5215 14.2793C24.5215 14.46 24.612 14.5504 24.7025 14.6408C24.8834 14.8215 25.2454 14.9119 25.6073 14.9119H26.8741V16.0868V15.9964ZM21.445 14.8215C22.0784 14.8215 22.6213 14.6408 23.0737 14.1889C23.5261 13.7371 23.7071 13.1948 23.7071 12.5622V11.297C23.7071 10.6643 23.5261 10.1221 23.0737 9.67023C22.6213 9.21836 22.0784 9.03761 21.445 9.03761C20.8116 9.03761 20.2687 9.21836 19.8163 9.67023C19.3638 10.1221 19.1829 10.6643 19.1829 11.297V14.8215H21.445Z" fill="#222222"/>
<path d="M26.6027 14.8213H29.5887V15.9961H26.6027V14.8213Z" fill="#222222"/>
<path d="M35.3796 7.77283C36.375 7.77283 37.1893 8.13432 37.9132 8.76694C38.6371 9.48993 38.9085 10.3033 38.9085 11.207V15.2739C38.9085 15.4546 38.9085 15.545 38.7276 15.7257C38.6371 15.8161 38.4561 15.9065 38.2752 15.9065H29.3171V14.7316H32.7556C32.2127 14.099 31.9412 13.2856 31.9412 12.4723V11.207C31.9412 10.2129 32.3031 9.39956 32.9365 8.76694C33.6604 8.04395 34.4748 7.77283 35.4701 7.77283H35.3796ZM37.7322 11.2974C37.7322 10.6648 37.5513 10.1226 37.0988 9.67068C36.6464 9.21881 36.1035 9.03806 35.4701 9.03806C34.8367 9.03806 34.2938 9.21881 33.8414 9.67068C33.389 10.1226 33.208 10.6648 33.208 11.2974V12.5627C33.208 13.1953 33.389 13.7375 33.8414 14.1894C34.2938 14.6412 34.8367 14.822 35.4701 14.822H37.8227V11.2974H37.7322ZM33.8414 6.23647C33.6604 6.23647 33.5699 6.23647 33.5699 6.05572V5.06161C33.5699 4.88086 33.5699 4.88086 33.8414 4.88086H34.6558C34.8367 4.88086 34.8367 4.88086 34.8367 5.06161V6.05572C34.8367 6.23647 34.8367 6.23647 34.6558 6.23647H33.8414ZM36.013 6.23647C35.8321 6.23647 35.7416 6.23647 35.7416 6.05572V5.06161C35.7416 4.88086 35.7416 4.88086 36.013 4.88086H36.8274C37.0084 4.88086 37.0988 4.88086 37.0988 5.06161V6.05572C37.0988 6.23647 37.0988 6.23647 36.8274 6.23647H36.013Z" fill="#222222"/>
<path d="M46.2378 15.9962H43.7042V16.6289C43.7042 17.5326 43.4327 18.1652 42.9803 18.7075C42.4374 19.2497 41.804 19.4305 40.8991 19.4305H40.0848C39.9038 19.4305 39.9038 19.4305 39.9038 19.2497V18.4363C39.9038 18.2556 39.9038 18.2556 40.0848 18.2556H40.8991C41.442 18.2556 41.8945 18.1652 42.1659 17.8941C42.4374 17.623 42.5279 17.2615 42.5279 16.7192V8.4952C42.5279 8.31445 42.5279 8.31445 42.7993 8.31445H43.6137C43.7947 8.31445 43.7946 8.31445 43.7946 8.4952V14.9118H46.3282V16.0866L46.2378 15.9962Z" fill="#222222"/>
<path d="M49.2238 4.15723C49.4047 4.15723 49.4047 4.15723 49.4047 4.33798V13.9176C49.4047 14.5502 49.2238 15.0925 48.8618 15.454C48.4999 15.8155 47.957 15.9962 47.3236 15.9962H45.4234V14.8214H47.3236C47.595 14.8214 47.8665 14.8214 47.957 14.6406C48.138 14.4599 48.1379 14.2791 48.1379 14.008V4.42835C48.1379 4.2476 48.1379 4.2476 48.3189 4.2476H49.1333L49.2238 4.15723Z" fill="#222222"/>
<path d="M53.3861 15.8155C53.3861 15.9962 53.3861 15.9962 53.2051 15.9962H52.3907C52.2098 15.9962 52.2098 15.9962 52.2098 15.8155V4.33798C52.2098 4.15723 52.2098 4.15723 52.3907 4.15723H53.2051C53.3861 4.15723 53.3861 4.15723 53.3861 4.33798V15.8155Z" fill="#222222"/>
<path d="M69.4019 15.9967H66.7779C66.5969 16.8101 66.235 17.5331 65.5111 18.0753C64.8777 18.6176 64.0633 18.8887 63.1585 18.8887C62.2536 18.8887 61.3488 18.5272 60.6249 17.8042C59.901 17.0812 59.5391 16.2678 59.5391 15.2737V11.3876C59.5391 11.2069 59.5391 11.2069 59.72 11.2069H60.5344C60.7154 11.2069 60.7154 11.2069 60.7154 11.3876V15.2737C60.7154 15.9063 60.9868 16.4486 61.4393 16.9005C61.8917 17.3523 62.4346 17.6235 63.1585 17.6235C63.8823 17.6235 64.4253 17.3523 64.8777 16.9005C65.3301 16.4486 65.6016 15.9063 65.6016 15.2737V8.31493C65.6016 8.13418 65.6016 8.13418 65.7825 8.13418H66.5969C66.7779 8.13418 66.8683 8.13418 66.8683 8.31493V14.7315H69.4019V15.9063V15.9967ZM62.6156 7.59194C62.4346 7.59194 62.4346 7.59194 62.4346 7.41119V6.41708C62.4346 6.23633 62.4346 6.23633 62.6156 6.23633H63.4299C63.6109 6.23633 63.7014 6.23633 63.7014 6.41708V7.41119C63.7014 7.59194 63.7014 7.59194 63.4299 7.59194H62.6156Z" fill="#222222"/>
<path d="M68.7686 15.9962V14.8214H71.3927C71.6641 14.8214 71.9356 14.8214 72.0261 14.6406C72.207 14.4599 72.207 14.2791 72.207 14.008V8.4952C72.207 8.31445 72.207 8.31445 72.4785 8.31445H73.2929C73.4738 8.31445 73.5643 8.31445 73.5643 8.4952V14.008C73.5643 14.6406 73.3834 15.1829 73.0214 15.5444C72.6595 15.9059 72.1166 16.0866 71.4832 16.0866H68.8591L68.7686 15.9962ZM70.6688 17.5326C70.8498 17.5326 70.9402 17.5326 70.9402 17.7133V18.7075C70.9402 18.8882 70.9403 18.8882 70.6688 18.8882H69.8544C69.6735 18.8882 69.6735 18.8882 69.6735 18.7075V17.7133C69.6735 17.5326 69.6735 17.5326 69.8544 17.5326H70.6688ZM72.9309 17.5326C73.1119 17.5326 73.2024 17.5326 73.2024 17.7133V18.7075C73.2024 18.8882 73.2024 18.8882 72.9309 18.8882H72.1166C71.9356 18.8882 71.9356 18.8882 71.9356 18.7075V17.7133C71.9356 17.5326 71.9356 17.5326 72.1166 17.5326H72.9309Z" fill="#222222"/>
<path d="M85.5082 14.8211V15.996H82.9746V16.1767C82.9746 17.0805 82.6127 17.8034 81.9793 18.4361C81.3459 19.0687 80.5315 19.4302 79.6267 19.4302H77.9075C77.7265 19.4302 77.7265 19.4302 77.7265 19.2494V18.4361C77.7265 18.2553 77.7265 18.2553 77.9075 18.2553H79.6267C80.1696 18.2553 80.7125 18.0746 81.0745 17.6227C81.5269 17.1708 81.7078 16.719 81.7078 16.1767V15.996H79.4457C78.4504 15.996 77.636 15.6345 76.9121 15.0019C76.1883 14.2789 75.9168 13.4655 75.9168 12.5618V11.2965C75.9168 10.3024 76.2788 9.48904 76.9121 8.85642C77.636 8.13343 78.4504 7.8623 79.4457 7.8623C80.441 7.8623 81.2554 8.2238 81.9793 8.85642C82.7032 9.48904 82.9746 10.3024 82.9746 11.2965V14.8211H85.5082ZM81.7078 11.2965C81.7078 10.6639 81.5269 10.1217 81.0745 9.66978C80.622 9.21791 80.0791 9.03717 79.4457 9.03717C78.8123 9.03717 78.2694 9.21791 77.817 9.66978C77.3646 10.1217 77.1836 10.6639 77.1836 11.2965V12.5618C77.1836 13.1944 77.3646 13.7366 77.817 14.1885C78.2694 14.6404 78.8123 14.8211 79.4457 14.8211H81.7078V11.2965Z" fill="#222222"/>
<path d="M85.0558 14.8213H88.4943V15.9961H85.0558V14.8213Z" fill="#222222"/>
<path d="M94.7377 15.9963H94.1948C93.3804 15.9963 92.747 15.8156 92.3851 15.3637C92.0231 15.7252 91.4802 15.906 90.8468 15.906H88.3132V14.7311H90.8468C91.1183 14.7311 91.3897 14.7311 91.4802 14.5503C91.6612 14.3696 91.6612 14.1888 91.6612 13.8273V8.31453C91.6612 8.13379 91.6612 8.13379 91.8421 8.13379H92.6565C92.8375 8.13379 92.928 8.13379 92.928 8.31453V14.0985C92.928 14.2792 92.928 14.46 93.1089 14.5503C93.2899 14.7311 93.6518 14.8215 94.1043 14.8215H94.9186V15.9963H94.7377ZM90.7563 17.5327C90.9373 17.5327 91.0278 17.5327 91.0278 17.7134V18.7075C91.0278 18.8883 91.0278 18.8883 90.7563 18.8883H89.9419C89.761 18.8883 89.761 18.8883 89.761 18.7075V17.7134C89.761 17.5327 89.761 17.5327 89.9419 17.5327H90.7563ZM92.928 17.5327C93.1089 17.5327 93.1994 17.5327 93.1994 17.7134V18.7075C93.1994 18.8883 93.1994 18.8883 92.928 18.8883H92.1136C91.9326 18.8883 91.8421 18.8883 91.8421 18.7075V17.7134C91.8421 17.5327 91.8421 17.5327 92.1136 17.5327H92.928Z" fill="#222222"/>
<path d="M106.682 14.822V15.9969H94.2853V14.822H97.9047C97.3618 14.1894 96.9999 13.376 96.9999 12.5627V11.2974C96.9999 10.3033 97.3618 9.48993 97.9952 8.85732C98.7191 8.13432 99.5335 7.8632 100.529 7.8632C101.524 7.8632 102.338 8.2247 103.062 8.85732C103.786 9.48993 104.058 10.3033 104.058 11.2974V14.822H106.591H106.682ZM98.2667 12.5627C98.2667 13.1953 98.4476 13.7375 98.9 14.1894C99.3525 14.6412 99.8954 14.822 100.529 14.822H102.791V11.2974C102.791 10.6648 102.61 10.1225 102.158 9.67068C101.705 9.21881 101.162 9.03806 100.529 9.03806C99.8954 9.03806 99.3525 9.21881 98.9 9.67068C98.4476 10.1225 98.2667 10.6648 98.2667 11.2974V12.5627ZM98.9905 6.23647C98.8096 6.23647 98.8096 6.23647 98.8096 6.05572V5.06161C98.8096 4.88086 98.8096 4.88086 98.9905 4.88086H99.8049C99.9859 4.88086 100.076 4.88086 100.076 5.06161V6.05572C100.076 6.23647 100.076 6.23647 99.8049 6.23647H98.9905ZM101.253 6.23647C101.072 6.23647 100.981 6.23647 100.981 6.05572V5.06161C100.981 4.88086 100.981 4.88086 101.253 4.88086H102.067C102.248 4.88086 102.338 4.88086 102.338 5.06161V6.05572C102.338 6.23647 102.338 6.23647 102.067 6.23647H101.253Z" fill="#222222"/>
<path d="M109.939 4.15723C110.12 4.15723 110.12 4.15723 110.12 4.33798V13.9176C110.12 14.5502 109.939 15.0925 109.577 15.454C109.215 15.8155 108.672 15.9962 108.039 15.9962H106.139V14.8214H108.039C108.31 14.8214 108.582 14.8214 108.672 14.6406C108.853 14.4599 108.853 14.2791 108.853 14.008V4.42835C108.853 4.2476 108.853 4.2476 109.034 4.2476H109.849L109.939 4.15723Z" fill="#222222"/>
<path d="M114.101 15.8155C114.101 15.9962 114.101 15.9962 113.921 15.9962H113.106C112.925 15.9962 112.925 15.9962 112.925 15.8155V4.33798C112.925 4.15723 112.925 4.15723 113.106 4.15723H113.921C114.101 4.15723 114.101 4.15723 114.101 4.33798V15.8155Z" fill="#222222"/>
<path d="M126.86 7.8623C127.855 7.8623 128.67 8.2238 129.393 8.85642C130.117 9.57941 130.389 10.3928 130.389 11.2965V12.5618C130.389 13.5559 130.027 14.3692 129.393 15.0019C128.67 15.6345 127.855 15.996 126.86 15.996H122.698C122.426 15.996 122.155 16.0863 121.883 16.3575C121.702 16.5382 121.521 16.8093 121.521 17.1708V19.3398C121.521 19.5206 121.521 19.5206 121.25 19.5206H120.435C120.254 19.5206 120.254 19.5206 120.254 19.3398V17.1708C120.254 16.5382 120.526 15.996 120.978 15.5441C121.431 15.0922 121.974 14.8211 122.607 14.8211H123.15V11.2965C123.15 10.3024 123.512 9.48904 124.145 8.85642C124.869 8.2238 125.684 7.8623 126.679 7.8623H126.86ZM129.122 11.2965C129.122 10.6639 128.941 10.1217 128.489 9.66978C128.036 9.21791 127.493 9.03717 126.86 9.03717C126.226 9.03717 125.684 9.21791 125.231 9.66978C124.779 10.1217 124.598 10.6639 124.598 11.2965V14.8211H126.95C127.584 14.8211 128.127 14.6404 128.579 14.1885C129.032 13.7366 129.212 13.1944 129.212 12.5618V11.2965H129.122Z" fill="#222222"/>
<path d="M135.456 2.25935C135.546 2.25935 135.637 2.25935 135.637 2.44009V2.80159C135.637 2.89197 135.637 2.98234 135.456 2.98234H132.651C132.56 2.98234 132.47 2.98234 132.47 2.80159V2.44009C132.47 2.34972 132.47 2.25935 132.651 2.25935H133.103V1.26523C133.103 0.903738 133.194 0.632616 133.465 0.361494C133.737 0.0903719 134.008 0 134.37 0C134.913 0 135.275 0.271121 135.546 0.722991V0.90374L135.184 1.08449V0.90374C135.003 0.632618 134.823 0.542243 134.551 0.542243C134.28 0.542243 134.28 0.542243 134.099 0.722991C134.008 0.813365 133.918 0.994113 133.918 1.17486V2.16897H135.637L135.456 2.25935ZM134.461 4.1572C134.642 4.1572 134.642 4.1572 134.642 4.33795V15.7251C134.642 15.9058 134.642 15.9058 134.461 15.9058H133.646C133.465 15.9058 133.465 15.9058 133.465 15.7251V4.33795C133.465 4.1572 133.465 4.1572 133.646 4.1572H134.461Z" fill="#222222"/>
</svg>
