<svg width="54" height="55" viewBox="0 0 54 55" fill="none" xmlns="http://www.w3.org/2000/svg">
<g clip-path="url(#clip0_5978_13759)">
<path d="M43.6535 37.8871C42.5777 37.4144 41.3332 37.9085 40.8586 39.0042C37.8211 46.0941 30.9445 50.681 23.3402 50.681C15.7359 50.681 4.23984 41.9476 4.23984 31.2162C4.23984 20.4847 8.74336 16.4779 15.7043 13.3734C16.7801 12.9007 17.2652 11.6224 16.8012 10.5267C16.3371 9.431 15.082 8.93686 14.0063 9.40952C5.49492 13.2015 0 21.763 0 31.2162C0 40.6693 2.42578 43.5374 6.83438 48.0277C11.243 52.5179 17.107 54.9886 23.3402 54.9886C32.6215 54.9886 41.0273 49.3919 44.7398 40.723C45.2039 39.6273 44.7188 38.3597 43.643 37.8763L43.6535 37.8871Z" fill="#9C98FA"/>
<path d="M53.9155 26.8241C52.8397 20.0995 49.7601 13.9872 45.0034 9.1532C40.2573 4.31922 34.2562 1.1825 27.6644 0.0867968C25.8819 -0.213984 24.0468 0.312383 22.6546 1.52625C21.2097 2.77234 20.3765 4.59852 20.3765 6.52137V27.7587C20.3765 31.3358 23.2347 34.247 26.7468 34.247H47.5979C49.4858 34.247 51.2788 33.3983 52.5022 31.9266C53.694 30.4979 54.2108 28.6395 53.9155 26.8241ZM49.2749 29.1337C48.853 29.6386 48.2413 29.9286 47.5979 29.9286H26.7468C25.5761 29.9286 24.6269 28.9618 24.6269 27.7694V6.52137C24.6269 5.86609 24.9116 5.24305 25.4073 4.81336C25.6288 4.62 26.0718 4.31922 26.6729 4.31922C27.2741 4.31922 26.8733 4.31922 26.9788 4.3407C32.6952 5.28602 37.8948 8.01453 42.0081 12.204C46.1214 16.3934 48.8003 21.6893 49.7284 27.5116C49.855 28.285 49.4964 28.8544 49.2749 29.1229V29.1337Z" fill="#9C98FA"/>
</g>
<defs>
<clipPath id="clip0_5978_13759">
<rect width="54" height="55" fill="white"/>
</clipPath>
</defs>
</svg>
