<svg width="24" height="26" viewBox="0 0 24 26" fill="none" xmlns="http://www.w3.org/2000/svg">
<path d="M19.5 3.13696H4.5C3.67157 3.13696 3 3.83917 3 4.70539V20.3897C3 21.2559 3.67157 21.9581 4.5 21.9581H19.5C20.3284 21.9581 21 21.2559 21 20.3897V4.70539C21 3.83917 20.3284 3.13696 19.5 3.13696Z" stroke="#A9B9C6" stroke-width="2" stroke-linecap="round" stroke-linejoin="round"/>
<path d="M13.3636 6.9999C13.3636 6.9999 10.6327 6.18121 10.0909 8.24699C9.54908 10.3128 12.2727 11.4063 13.3636 11.24C11.1818 11.24 9 12.6455 9 14.7319C9 16.8183 10.8267 17.9999 12.2727 17.9999C13.7188 17.9999 14.4545 17.5736 15 16.9999" stroke="#A9B9C6" stroke-width="2" stroke-linecap="round" stroke-linejoin="round"/>
</svg>
