<svg width="29" height="38" viewBox="0 0 29 38" fill="none" xmlns="http://www.w3.org/2000/svg">
<path d="M27.2653 0.951369C26.7024 0.692016 26.0391 0.792939 25.5787 1.20783L23.1492 3.3589C23.0832 3.41772 22.9835 3.41737 22.9177 3.3582L19.6122 0.401765C19.0144 -0.133922 18.1093 -0.133922 17.5115 0.401765L14.209 3.35548C14.1425 3.41483 14.0421 3.41483 13.9757 3.35548L10.6728 0.401765C10.075 -0.133834 9.16992 -0.133834 8.57209 0.401765L5.26615 3.3582C5.19997 3.41737 5.10001 3.41763 5.03349 3.35881L2.60189 1.20783C1.95679 0.634159 0.968747 0.692016 0.395072 1.33712C0.137819 1.6264 -0.00292979 2.00086 4.62476e-05 2.38792V34.6424C-0.00573077 35.507 0.690487 36.2126 1.55511 36.2184C1.94244 36.221 2.31689 36.0799 2.60627 35.8225L5.03568 33.6714C5.10176 33.6126 5.20146 33.6129 5.2672 33.6721L8.5727 36.6285C9.17053 37.1642 10.0756 37.1642 10.6734 36.6285L13.9763 33.6748C14.0427 33.6155 14.1431 33.6155 14.2096 33.6748L17.5125 36.6285C18.1104 37.1639 19.0154 37.1639 19.6132 36.6285L22.9193 33.672C22.9855 33.6129 23.0854 33.6126 23.152 33.6714L25.5836 35.8224C26.2289 36.3958 27.2169 36.3375 27.7903 35.6921C28.0471 35.4031 28.1877 35.0291 28.1849 34.6424V2.38792C28.1931 1.76829 27.8314 1.20328 27.2653 0.951369ZM5.79518 12.5631H14.512C14.8987 12.5631 15.2122 12.8766 15.2122 13.2633C15.2122 13.65 14.8987 13.9636 14.512 13.9636H5.79518C5.40847 13.9636 5.09494 13.65 5.09494 13.2633C5.09494 12.8766 5.40847 12.5631 5.79518 12.5631ZM22.3897 24.4672H5.79518C5.40847 24.4672 5.09494 24.1537 5.09494 23.767C5.09494 23.3803 5.40847 23.0667 5.79518 23.0667H22.3897C22.7765 23.0667 23.09 23.3803 23.09 23.767C23.09 24.1537 22.7765 24.4672 22.3897 24.4672ZM22.3897 19.2154H5.79518C5.40847 19.2154 5.09494 18.9019 5.09494 18.5152C5.09494 18.1284 5.40847 17.8149 5.79518 17.8149H22.3897C22.7765 17.8149 23.09 18.1284 23.09 18.5152C23.09 18.9019 22.7765 19.2154 22.3897 19.2154Z" fill="#446FF2"/>
</svg>
