<svg width="34" height="34" viewBox="0 0 34 34" fill="none" xmlns="http://www.w3.org/2000/svg">
<path d="M15.2282 5.32109C15.9777 3.89297 18.0223 3.89297 18.7718 5.32109L21.5679 10.6485C21.868 11.2202 22.4256 11.6121 23.0653 11.7006L28.8864 12.5067C30.5481 12.7368 31.2061 14.7866 29.9888 15.9409L25.7882 19.9243C25.2989 20.3882 25.0762 21.0674 25.1957 21.731L26.215 27.39C26.5062 29.0064 24.8336 30.2659 23.3606 29.5394L17.8851 26.839C17.3271 26.5638 16.6729 26.5638 16.1149 26.839L10.6394 29.5394C9.16639 30.2659 7.49381 29.0064 7.78496 27.39L8.80428 21.731C8.92381 21.0674 8.7011 20.3882 8.21183 19.9243L4.01115 15.9409C2.7939 14.7866 3.45191 12.7368 5.11357 12.5067L10.9347 11.7006C11.5744 11.6121 12.1319 11.2202 12.432 10.6485L15.2282 5.32109Z" fill="white"/>
<path d="M15.2282 5.32109C15.9777 3.89297 18.0223 3.89297 18.7718 5.32109L21.5679 10.6485C21.868 11.2202 22.4256 11.6121 23.0653 11.7006L28.8864 12.5067C30.5481 12.7368 31.2061 14.7866 29.9888 15.9409L25.7882 19.9243C25.2989 20.3882 25.0762 21.0674 25.1957 21.731L26.215 27.39C26.5062 29.0064 24.8336 30.2659 23.3606 29.5394L17.8851 26.839C17.3271 26.5638 16.6729 26.5638 16.1149 26.839L10.6394 29.5394C9.16639 30.2659 7.49381 29.0064 7.78496 27.39L8.80428 21.731C8.92381 21.0674 8.7011 20.3882 8.21183 19.9243L4.01115 15.9409C2.7939 14.7866 3.45191 12.7368 5.11357 12.5067L10.9347 11.7006C11.5744 11.6121 12.1319 11.2202 12.432 10.6485L15.2282 5.32109Z" stroke="#9E9E9E" stroke-width="1.5" stroke-miterlimit="10"/>
</svg>
